# xmcd
#
# Track frame offsets:
#	182
#	13985
#	29502
#	43597
#	55857
#	72627
#	86670
#	101252
#	114692
#	128460
#	142300
#	155257
#	168220
#	182370
#	197320
#
# Disc length: 2782 seconds
#
# Revision: 2
# Processed by: cddbd v1.4PL0 Copyright (c) Steve Scherf et al.
# Submitted via: EZCDDA 4.3.2
#
DISCID=c60adc0f
DTITLE=Ella Fitzgerald - Woman in Jazz
DYEAR=1900
DGENRE=
TTITLE0=Sugar Blues
TTITLE1=Chewing Gum
TTITLE2=Basin Street Blues
TTITLE3=sing Song Swing
TTITLE4=It's a Blue World
TTITLE5=You Can't Be Mine
TTITLE6=The Starlit Hour
TTITLE7=Pack Up Your Sins And Go To The Devil ! 
TTITLE8=What's The Matter With Me ?
TTITLE9=You Can't Go On the Way
TTITLE10=Strictly From Dixie
TTITLE11=Saving Myself For You
TTITLE12=I Can't Stop Loving You
TTITLE13=Undecided
TTITLE14=Three Little Words
EXTD=
EXTT0=
EXTT1=
EXTT2=
EXTT3=
EXTT4=
EXTT5=
EXTT6=
EXTT7=
EXTT8=
EXTT9=
EXTT10=
EXTT11=
EXTT12=
EXTT13=
EXTT14=
PLAYORDER=
